<svg width="86" height="86" viewBox="0 0 86 86" fill="none" xmlns="http://www.w3.org/2000/svg">
<path d="M86 43C86 66.7482 66.7482 86 43 86C19.2518 86 0 66.7482 0 43C0 19.2518 19.2518 0 43 0C66.7482 0 86 19.2518 86 43ZM9.46 43C9.46 61.5236 24.4764 76.54 43 76.54C61.5236 76.54 76.54 61.5236 76.54 43C76.54 24.4764 61.5236 9.46 43 9.46C24.4764 9.46 9.46 24.4764 9.46 43Z" fill="#E9F3E1"/>
<path d="M43 4.73C43 2.11769 45.1241 -0.0269089 47.7206 0.259865C54.8937 1.0521 61.7794 3.64078 67.7252 7.81956C74.9659 12.9084 80.46 20.1074 83.4579 28.4343C86.4557 36.7611 86.8113 45.8102 84.476 54.3465C82.1407 62.8829 77.2283 70.4908 70.4092 76.1321C63.5901 81.7733 55.1965 85.1731 46.3737 85.8674C37.551 86.5618 28.7288 84.517 21.1112 80.0119C13.4936 75.5069 7.45158 68.7611 3.80966 60.6951C0.819029 54.0716 -0.433548 46.8228 0.132354 39.6283C0.337199 37.024 2.84183 35.3394 5.40787 35.8289V35.8289C7.97391 36.3184 9.62169 38.7992 9.49775 41.4086C9.24749 46.6773 10.2427 51.9544 12.4315 56.8022C15.2722 63.0936 19.985 68.3553 25.9268 71.8693C31.8685 75.3832 38.7498 76.9782 45.6315 76.4366C52.5133 75.895 59.0603 73.2432 64.3792 68.843C69.6981 64.4428 73.5297 58.5087 75.3513 51.8503C77.1728 45.1919 76.8955 38.1337 74.5571 31.6387C72.2188 25.1438 67.9334 19.5285 62.2857 15.5593C57.9339 12.5008 52.9367 10.5344 47.7145 9.79296C45.1281 9.42577 43 7.34231 43 4.73V4.73Z" fill="#67B779"/>
<path d="M57.3926 40.6611C58.6367 40.6611 59.4639 39.7314 59.4639 38.3438C59.4639 36.9492 58.6367 36.0195 57.3926 36.0195C56.1484 36.0195 55.3145 36.9492 55.3145 38.3438C55.3145 39.7314 56.1484 40.6611 57.3926 40.6611ZM57.5908 46L64.4541 36.1357H63.3467L56.4697 46H57.5908ZM57.3926 39.8477C56.6816 39.8477 56.2031 39.2461 56.2031 38.3438C56.2031 37.4414 56.6816 36.8398 57.3926 36.8398C58.1035 36.8398 58.5752 37.4414 58.5752 38.3438C58.5752 39.2461 58.1035 39.8477 57.3926 39.8477ZM63.5381 46.1094C64.7822 46.1094 65.6094 45.1797 65.6094 43.792C65.6094 42.3975 64.7822 41.4678 63.5381 41.4678C62.2939 41.4678 61.46 42.3975 61.46 43.792C61.46 45.1797 62.2939 46.1094 63.5381 46.1094ZM63.5381 45.2959C62.8271 45.2959 62.3486 44.6943 62.3486 43.792C62.3486 42.8896 62.8271 42.2881 63.5381 42.2881C64.249 42.2881 64.7207 42.8896 64.7207 43.792C64.7207 44.6943 64.249 45.2959 63.5381 45.2959Z" fill="#67B779"/>
<path d="M26.0742 52H29.7891L36.8438 37.9375V35.0898H24.75V37.9023H33.3516V37.9727L26.0742 52ZM45.2125 52.375C49.2437 52.375 52.068 50.3594 52.068 47.4297C52.068 45.2031 50.4391 43.5625 48.1305 43.1055V43.0352C50.1109 42.543 51.4469 41.0898 51.4469 39.2734C51.4469 36.625 48.8805 34.7148 45.2125 34.7148C41.5445 34.7148 38.9664 36.6367 38.9664 39.2617C38.9664 41.1016 40.3141 42.5547 42.3062 43.0352V43.1055C39.9977 43.5508 38.357 45.1914 38.357 47.418C38.357 50.3477 41.1695 52.375 45.2125 52.375ZM45.2125 41.9688C43.607 41.9688 42.4703 41.0078 42.4703 39.625C42.4703 38.2305 43.607 37.2695 45.2125 37.2695C46.8062 37.2695 47.9547 38.2305 47.9547 39.625C47.9547 41.0078 46.8062 41.9688 45.2125 41.9688ZM45.2125 49.7969C43.3492 49.7969 42.0484 48.6953 42.0484 47.1602C42.0484 45.6484 43.3492 44.5469 45.2125 44.5469C47.0758 44.5469 48.3648 45.6367 48.3648 47.1602C48.3648 48.6953 47.0758 49.7969 45.2125 49.7969Z" fill="#67B779"/>
</svg>
